HIERARCHY
ROOT Bip001_Pelvis
{
  OFFSET 34.4345 95.6767 -26.8758
  CHANNELS 6 Xposition Yposition Zposition Zrotation Xrotation Yrotation
  JOINT Bip001_Spine
  {
    OFFSET 1.4188e-005 10.2191 -0.0116013
    CHANNELS 3 Zrotation Xrotation Yrotation
    JOINT Bip001_L_Thigh
    {
      OFFSET 11.0458 -10.2192 0.0116197
      CHANNELS 3 Zrotation Xrotation Yrotation
      JOINT Bip001_L_Calf
      {
        OFFSET -0.707118 -44.0221 0.360014
        CHANNELS 3 Zrotation Xrotation Yrotation
        JOINT Bip001_L_Foot
        {
          OFFSET -0.651902 -40.5938 -3.56146
          CHANNELS 3 Zrotation Xrotation Yrotation
          JOINT Bip001_L_Toe0
          {
            OFFSET 0.0530839 -10.2181 13.1504
            CHANNELS 3 Zrotation Xrotation Yrotation
            End Site
            {
              OFFSET -1.02532e-005 0 7.55606
            }
          }
        }
      }
    }
    JOINT Bip001_R_Thigh
    {
      OFFSET -11.0458 -10.2191 0.0115893
      CHANNELS 3 Zrotation Xrotation Yrotation
      JOINT Bip001_R_Calf
      {
        OFFSET 0.706994 -44.0221 0.35984
        CHANNELS 3 Zrotation Xrotation Yrotation
        JOINT Bip001_R_Foot
        {
          OFFSET 0.651786 -40.5938 -3.5613
          CHANNELS 3 Zrotation Xrotation Yrotation
          JOINT Bip001_R_Toe0
          {
            OFFSET -0.0531479 -10.2181 13.1504
            CHANNELS 3 Zrotation Xrotation Yrotation
            End Site
            {
              OFFSET -1.02894e-005 0 7.55606
            }
          }
        }
      }
    }
    JOINT Bip001_Spine1
    {
      OFFSET 1.87041e-005 14.5736 1.08638
      CHANNELS 3 Zrotation Xrotation Yrotation
      JOINT Bip001_Spine2
      {
        OFFSET 2.24614e-005 14.5058 -1.69078
        CHANNELS 3 Zrotation Xrotation Yrotation
        JOINT Bip001_Neck
        {
          OFFSET 2.20278e-005 15.3945 -0.489414
          CHANNELS 3 Zrotation Xrotation Yrotation
          JOINT Bip001_L_Clavicle
          {
            OFFSET 6.06036 -0.000579998 0.00836775
            CHANNELS 3 Zrotation Xrotation Yrotation
            JOINT Bip001_L_UpperArm
            {
              OFFSET 11.5509 -0.0600302 0.00193952
              CHANNELS 3 Zrotation Xrotation Yrotation
              JOINT Bip001_L_Forearm
              {
                OFFSET 25.9523 0.0806089 -2.15551
                CHANNELS 3 Zrotation Xrotation Yrotation
                JOINT Bip001_L_Hand
                {
                  OFFSET 32.2475 0.153767 1.63968
                  CHANNELS 3 Zrotation Xrotation Yrotation
                  JOINT Bip001_L_Finger0
                  {
                    OFFSET 6.04639 -2.20976 5.90322
                    CHANNELS 3 Zrotation Xrotation Yrotation
                    End Site
                    {
                      OFFSET 4.22375 -1.43895 0.606485
                    }
                  }
                  JOINT Bip001_L_Finger1
                  {
                    OFFSET 11.0826 -0.704819 -0.198153
                    CHANNELS 3 Zrotation Xrotation Yrotation
                    End Site
                    {
                      OFFSET 6.20027 -0.397518 -0.0787166
                    }
                  }
                }
              }
            }
          }
          JOINT Bip001_R_Clavicle
          {
            OFFSET -6.06037 -0.000563197 0.00835105
            CHANNELS 3 Zrotation Xrotation Yrotation
            JOINT Bip001_R_UpperArm
            {
              OFFSET -11.5509 -0.0599978 0.00190698
              CHANNELS 3 Zrotation Xrotation Yrotation
              JOINT Bip001_R_Forearm
              {
                OFFSET -25.9523 0.0806822 -2.15589
                CHANNELS 3 Zrotation Xrotation Yrotation
                JOINT Bip001_R_Hand
                {
                  OFFSET -32.2475 0.153859 1.63989
                  CHANNELS 3 Zrotation Xrotation Yrotation
                  JOINT Bip001_R_Finger0
                  {
                    OFFSET -6.04641 -2.20976 5.90317
                    CHANNELS 3 Zrotation Xrotation Yrotation
                    End Site
                    {
                      OFFSET -4.22376 -1.43895 0.60647
                    }
                  }
                  JOINT Bip001_R_Finger1
                  {
                    OFFSET -11.0826 -0.704794 -0.198182
                    CHANNELS 3 Zrotation Xrotation Yrotation
                    End Site
                    {
                      OFFSET -6.20028 -0.397504 -0.0787333
                    }
                  }
                }
              }
            }
          }
          JOINT Bip001_Head
          {
            OFFSET 1.09673e-005 11.2744 2.05948
            CHANNELS 3 Zrotation Xrotation Yrotation
            End Site
            {
              OFFSET 2.89576e-005 20.8808 -2.77728e-005
            }
          }
        }
      }
    }
  }
}
MOTION
Frames:	13
Frame Time:	0.04
32.4891 95.9575 -28.2253 -2.70804 -0.429911 4.25639 -0.340334 1.93589 1.68963 9.982 -5.52844 7.67318 -2.05649 11.7974 -11.5887 2.30936 -6.77927 0.0501827 0.527858 -3.51668 -0.169936 1.42382 -0.539388 -2.66932 -1.30089 6.08649 0.174727 -6.14019 -6.35067 -0.575427 2.24894 -7.5544 2.23975 -0.738537 3.86085 3.3937 -0.738466 3.86087 3.3937 2.45768 -11.2685 -8.6869 -27.5322 9.7522 4.34676 -57.8345 47.8239 10.756 12.8981 -14.0715 -29.2904 6.85049 1.87469 1.03673 -3.18055e-015 -1.27222e-014 -0 -3.18055e-015 -1.59028e-014 3.18055e-015 -8.0797 11.4397 31.2953 24.3087 -24.529 69.3293 -38.3801 -6.79788 31.9799 -32.1473 7.89316 3.83108 -1.32417e-031 9.54166e-015 7.95139e-016 -3.18055e-015 6.36111e-015 -0 -0.42463 -1.94585 -7.73734 
32.6922 95.9599 -28.2365 -2.29343 -0.430484 3.71735 -0.377689 1.9217 1.56723 9.2271 -5.01353 8.16686 -1.63584 11.1203 -11.5167 2.49359 -6.37002 0.0424783 0.680759 -3.757 -0.286238 0.758902 -0.846527 -2.36895 -1.08976 6.75945 0.216523 -6.08078 -6.72084 -0.328374 2.24814 -7.55584 2.23917 -0.808539 3.8323 3.14976 -0.808536 3.8323 3.14976 1.97709 -11.1048 -8.15234 -27.1 9.67321 4.6598 -58.2759 47.8465 11.0832 12.7123 -13.3366 -29.1435 7.51259 1.72872 0.774884 -4.77083e-015 9.54166e-015 -0 1.59028e-015 6.36111e-015 -0 -5.44893 12.2681 30.984 30.3987 -25.5215 69.2155 -39.23 -3.0272 40.1104 -31.2197 6.78163 4.31388 1.59028e-015 -6.36111e-015 -7.95139e-016 1.59028e-015 -6.36111e-015 -0 -0.15572 -2.06585 -7.37692 
32.8118 95.9609 -28.2977 -2.03448 -0.372169 3.32165 -0.372564 1.90253 1.44385 8.70431 -4.78554 8.37689 -1.36538 10.733 -11.4217 2.64831 -6.05772 0.0324214 0.661285 -3.91353 -0.242014 0.269451 -1.23152 -1.83554 -0.860982 7.36856 0.210234 -6.07611 -6.94023 -0.335422 2.24712 -7.54423 2.23882 -0.781871 3.79513 2.90229 -0.784582 3.79515 2.90225 1.71558 -11.0727 -7.66774 -26.7703 9.76917 4.68102 -59.1064 47.5627 11.5116 13.1081 -12.1353 -28.9143 8.40468 1.51435 0.669162 -3.18055e-015 -3.18055e-015 -0 -4.77083e-015 -3.18056e-015 3.18055e-015 -2.38726 13.4136 30.7515 40.9316 -28.697 69.0213 -41.1341 3.56465 52.8363 -32.1216 4.79601 5.09838 1.59028e-015 3.18055e-015 -3.97569e-016 1.59028e-015 0 3.97569e-016 -0.152901 -2.14377 -6.97001 
32.9193 95.9561 -28.3414 -1.72022 -0.375022 3.04622 -0.383309 1.87969 1.27504 8.26961 -4.45566 8.63269 -1.30237 10.2782 -11.3864 2.70222 -5.76084 0.0235302 0.682452 -4.00726 -0.210974 -0.234689 -1.47999 -1.79694 -0.701004 7.89596 0.202347 -5.96285 -7.27874 0.0198187 2.24564 -7.51514 2.23858 -0.812077 3.75032 2.56508 -0.809537 3.75032 2.565 1.45048 -10.6308 -7.06413 -26.4471 9.47016 4.6522 -59.7317 47.4969 11.8746 13.5151 -11.6825 -28.5405 8.36889 1.40755 0.523172 -3.18055e-015 -3.18055e-015 -3.18055e-015 -0 -6.36111e-015 -0 1.97998 14.5842 30.409 55.5409 -35.8004 69.3916 -44.3327 12.2156 71.28 -31.8859 2.33484 5.69725 -1.59028e-015 6.36111e-015 -0 -2.38542e-015 6.36111e-015 -7.95139e-016 0.0706996 -2.64304 -6.49463 
32.9925 95.9423 -28.4072 -1.35271 -0.292078 3.09693 -0.440002 1.82744 1.08067 7.82915 -4.26419 8.65871 -1.22395 9.79816 -11.4266 2.4641 -5.51384 0.015921 0.568744 -3.98746 -0.0403799 -0.667748 -1.74084 -1.76803 -0.598124 8.40477 0.204457 -5.97005 -7.63033 0.109014 2.24752 -7.54713 2.24435 -0.916497 3.64619 2.17696 -0.920035 3.6462 2.17718 1.36061 -10.2284 -6.57003 -26.0024 9.22013 4.48194 -60.4667 47.2162 12.297 13.607 -11.9725 -28.3983 8.39615 1.42477 0.552225 1.59028e-015 3.18055e-015 3.18055e-015 1.59028e-015 3.18056e-015 6.36111e-015 6.47819 15.7599 29.8273 60.2405 -41.7228 62.9109 -45.7599 14.8525 87.3309 -31.3487 0.100321 6.59555 1.59028e-015 0 -0 0 0 -0 0.142134 -3.00826 -6.05831 
32.9675 95.9292 -28.5302 -1.19072 -0.0295611 3.15438 -0.446194 1.78465 0.812049 7.65278 -4.45152 8.71658 -1.31028 9.59086 -11.2318 3.31404 -4.99972 -0.00267698 0.8735 -4.42968 -0.357929 -0.817424 -2.18914 -0.875545 -0.486078 8.75384 0.0598905 -6.19063 -7.70312 -0.413695 2.26665 -7.61599 2.26447 -0.914707 3.5628 1.63859 -0.912678 3.56274 1.63876 1.01205 -10.0723 -5.882 -25.5986 9.18729 4.59353 -60.8714 46.9524 12.205 14.1937 -12.8524 -27.9661 7.35627 1.51065 0.478737 6.36111e-015 -6.36111e-015 -1.59028e-015 4.77083e-015 -3.18056e-015 -0 11.2663 17.1155 29.0207 54.6007 -45.0634 48.7523 -45.1941 12.0594 96.6209 -31.4638 -1.40766 7.42489 1.59028e-015 -6.36111e-015 -1.59028e-015 -1.59028e-015 0 -1.59028e-015 0.47005 -3.34859 -5.58301 
32.9263 95.92 -28.5911 -1.01307 -0.0193103 3.42562 -0.443365 1.7396 0.768162 7.54271 -4.41907 8.37 -1.4699 9.41126 -11.1061 3.44484 -4.80305 -0.0168302 0.894863 -4.48748 -0.364748 -0.926141 -2.26437 -0.720252 -0.493099 9.01522 -0.00493107 -6.32477 -7.81791 -0.726302 2.28264 -7.66221 2.27818 -0.910659 3.47303 1.55084 -0.910663 3.47304 1.55084 2.04742 -9.06309 -6.08123 -26.8159 8.24938 3.6258 -60.8791 46.1293 12.7311 14.8155 -12.2431 -27.8714 6.81038 1.43384 0.116343 4.77083e-015 6.36111e-015 -1.59028e-015 -1.59028e-015 9.54167e-015 -1.59028e-015 14.9344 17.2626 27.3551 44.1717 -43.3706 29.9073 -45.0969 9.06418 102.678 -32.1454 -1.50589 7.77223 -3.18055e-015 6.36111e-015 -4.77083e-015 3.18055e-015 9.54167e-015 -3.18055e-015 -0.615373 -4.66825 -5.31695 
32.965 95.9118 -28.576 -0.646857 -0.157912 3.76385 -0.470192 1.78814 0.524975 7.13571 -4.15357 8.18227 -1.43242 8.98824 -11.0832 3.34798 -4.54054 -0.0185202 0.894688 -4.48088 -0.372356 -1.30085 -2.23544 -1.19563 -0.519492 9.3569 -0.00592528 -6.27936 -8.175 -0.435292 2.30454 -7.74512 2.3204 -0.958405 3.57179 1.06623 -0.958172 3.57172 1.06585 1.24537 -9.92503 -5.58643 -25.9147 9.12342 4.32692 -60.7418 46.102 12.3278 15.2998 -11.283 -27.6735 7.09095 1.37939 -0.116803 -3.18055e-015 -9.54166e-015 4.77083e-015 -3.18055e-015 -1.27222e-014 3.18055e-015 18.8048 18.7421 25.5412 36.7103 -35.6281 13.0031 -45.6132 6.39642 102.648 -32.1771 -1.31228 8.0835 -3.18055e-015 -3.18055e-015 -3.18055e-015 -3.18055e-015 3.18056e-015 -0 -0.0118751 -3.80079 -5.11965 
32.9566 95.9158 -28.5524 -0.588009 -0.116535 3.80206 -0.467793 1.76206 0.468457 7.10763 -4.11568 8.17951 -1.4586 8.92721 -11.0758 2.91392 -4.69383 -0.010832 0.686332 -4.17205 -0.151168 -1.33609 -2.2305 -1.44193 -0.61126 9.35915 0.0521893 -6.20722 -8.22916 -0.264111 2.31218 -7.77089 2.33358 -0.948743 3.52023 0.947873 -0.94986 3.52022 0.949821 0.911162 -10.3487 -5.40916 -25.6332 9.5447 4.61368 -60.1133 46.3979 11.7677 14.9356 -11.9637 -27.3061 7.18794 1.53334 -0.153973 -3.18055e-015 0 3.18055e-015 -3.18055e-015 3.18056e-015 3.18055e-015 21.6793 19.5569 24.1372 34.8958 -25.108 0.724726 -46.5874 6.04837 96.9812 -30.3284 -1.82065 8.38285 6.36111e-015 -3.18055e-015 3.18055e-015 9.54166e-015 -4.77083e-015 3.18055e-015 0.174473 -3.0444 -5.04125 
32.9747 95.9132 -28.5018 -0.477955 -0.105964 3.67575 -0.444453 1.75135 0.469939 6.89089 -3.943 8.44504 -1.38265 8.69277 -11.3273 3.60378 -4.33796 -0.0273242 0.878959 -4.49942 -0.31514 -1.46343 -2.20799 -1.6837 -0.714328 9.38038 0.144856 -6.11981 -8.34067 -0.035196 2.31672 -7.78887 2.33873 -0.903694 3.49894 0.954323 -0.903842 3.49894 0.954642 0.435861 -10.4808 -5.27558 -25.3814 9.74128 4.6414 -59.1484 46.1966 11.2781 14.9485 -11.9385 -27.203 7.11283 1.37541 -0.265196 1.59028e-015 -3.18055e-015 -3.18055e-015 3.18055e-015 6.36111e-015 -3.18055e-015 23.3162 19.5626 22.4262 38.646 -15.2515 -5.51745 -46.7324 9.98704 86.8352 -28.2925 -0.225559 7.44658 3.18055e-015 -3.97569e-016 -0 1.59028e-015 3.97569e-016 -0 0.324604 -2.8957 -5.04606 
33.0062 95.9082 -28.481 -0.429961 -0.148189 3.56014 -0.427524 1.76802 0.458731 6.83123 -3.85726 8.57159 -1.41384 8.67045 -11.2949 3.55199 -4.3813 -0.0268192 0.900291 -4.46249 -0.349773 -1.56566 -2.18539 -1.73895 -0.717214 9.40549 0.164537 -6.07676 -8.41617 0.137036 2.3205 -7.81083 2.34243 -0.869902 3.5325 0.931478 -0.869859 3.53251 0.931407 0.594892 -10.2891 -5.2028 -25.4154 9.61851 4.37729 -58.6573 45.1606 10.8846 15.8553 -10.3873 -27.0911 7.52859 1.43496 -0.575899 -4.77083e-015 -6.36111e-015 -0 -4.77083e-015 -3.18056e-015 3.18055e-015 23.0631 18.8485 20.9507 45.9981 -1.06275 -7.1338 -47.9359 13.9764 68.8694 -28.1641 0.0795274 6.87305 -0 -2.68359e-015 -0 -7.95139e-016 -8.94531e-016 -1.59028e-015 0.120729 -3.27435 -4.89575 
33.0712 95.9123 -28.4841 -0.375413 -0.185795 3.30794 -0.377092 1.7999 0.383584 6.69231 -3.78892 8.80935 -1.39719 8.68506 -11.177 3.49317 -4.44291 -0.0262565 0.899857 -4.3811 -0.372059 -1.74138 -2.22747 -1.58374 -0.67333 9.42386 0.142254 -6.03185 -8.44148 0.252782 2.32342 -7.82533 2.37165 -0.766806 3.59719 0.779601 -0.766804 3.59719 0.779601 0.282288 -10.3828 -4.90049 -25.4053 9.78714 4.36902 -57.9651 44.2146 10.3849 16.3361 -9.54827 -27.0675 8.00339 1.60752 -0.719858 0 0 -3.18055e-015 1.59028e-015 3.18056e-015 -0 23.4534 18.5977 19.9141 51.8922 11.5567 -7.36245 -42.8083 18.4905 49.2388 -26.3276 1.21744 6.3411 -6.36111e-015 0 4.96962e-016 -3.18055e-015 -6.95747e-016 2.48481e-016 0.368693 -3.19406 -4.72237 
33.1735 95.9189 -28.4741 -0.198902 -0.309122 2.89769 -0.36215 1.84854 0.349753 6.35399 -3.43211 9.21794 -1.24296 8.32463 -11.1583 3.39607 -4.39001 -0.0285665 0.877378 -4.36863 -0.341603 -2.05094 -2.30261 -1.47564 -0.622896 9.64658 0.114702 -5.88402 -8.56789 0.566669 2.3148 -7.79635 2.35418 -0.736769 3.6948 0.711222 -0.736321 3.6948 0.709352 0.491042 -10.4398 -4.67206 -25.6155 9.8796 4.30084 -57.6932 43.7507 9.98259 15.9601 -10.1207 -27.0182 8.30485 1.34762 -0.704831 -6.36111e-015 0 3.18055e-015 -6.36111e-015 0 -0 23.8406 18.6704 19.5829 54.3691 16.7899 -7.09917 -34.1395 24.9636 34.2401 -22.3311 1.83371 4.19179 6.36111e-015 7.95139e-016 -1.59028e-015 6.36111e-015 7.95139e-016 -7.95139e-016 0.0414266 -3.29122 -4.39576 
